# xmcd
#
# Track frame offsets:
#	150
#	28950
#	45503
#	60763
#	82668
#	126028
#	147780
#	157086
#	191334
#	226470
#	238178
#
# Disc length: 3422 seconds
#
# Revision: 1
# Processed by: cddbd v1.5.2PL0 Copyright (c) Steve Scherf et al.
# Submitted via: audiograbber 1.83.01
#
DISCID=850d5c0b
DTITLE=Grateful Dead - 71-11-11 Atlanta Municipal Auditorium, Atlanta GA
DYEAR=1900
DGENRE=
TTITLE0=Me and Bobby McGee
TTITLE1=Big Railroad Blues
TTITLE2=Mexicali Blues
TTITLE3=One More Saturday Night
TTITLE4=Truckin'
TTITLE5=Sugar Magnolia
TTITLE6=Sunshine Daydream
TTITLE7=Not Fade Away
TTITLE8=Going Down The Road Feeling Bad
TTITLE9=Not Fade Away
TTITLE10=Johnny B Goode
EXTD=
EXTT0=
EXTT1=
EXTT2=
EXTT3=
EXTT4=
EXTT5=
EXTT6=
EXTT7=
EXTT8=
EXTT9=
EXTT10=
PLAYORDER=
